{
	"patcher" : 	{
		"fileversion" : 1,
		"appversion" : 		{
			"major" : 7,
			"minor" : 1,
			"revision" : 0,
			"architecture" : "x86",
			"modernui" : 1
		}
,
		"rect" : [ 34.0, 79.0, 2028.0, 1164.0 ],
		"bglocked" : 0,
		"openinpresentation" : 1,
		"default_fontsize" : 12.0,
		"default_fontface" : 0,
		"default_fontname" : "Monaco",
		"gridonopen" : 1,
		"gridsize" : [ 15.0, 15.0 ],
		"gridsnaponopen" : 1,
		"objectsnaponopen" : 1,
		"statusbarvisible" : 2,
		"toolbarvisible" : 1,
		"lefttoolbarpinned" : 0,
		"toptoolbarpinned" : 0,
		"righttoolbarpinned" : 0,
		"bottomtoolbarpinned" : 0,
		"toolbars_unpinned_last_save" : 0,
		"tallnewobj" : 0,
		"boxanimatetime" : 200,
		"enablehscroll" : 1,
		"enablevscroll" : 1,
		"devicewidth" : 0.0,
		"description" : "",
		"digest" : "",
		"tags" : "",
		"style" : "wm20150520a",
		"subpatcher_template" : "",
		"boxes" : [ 			{
				"box" : 				{
					"id" : "obj-30",
					"maxclass" : "newobj",
					"numinlets" : 2,
					"numoutlets" : 1,
					"outlettype" : [ "" ],
					"patching_rect" : [ 189.666626, 843.0, 90.0, 23.0 ],
					"presentation_rect" : [ 212.0, 855.0, 0.0, 0.0 ],
					"style" : "",
					"text" : "speedlim 33"
				}

			}
, 			{
				"box" : 				{
					"id" : "obj-20",
					"maxclass" : "newobj",
					"numinlets" : 1,
					"numoutlets" : 1,
					"outlettype" : [ "" ],
					"patching_rect" : [ 1533.0, 32.0, 97.0, 23.0 ],
					"style" : "",
					"text" : "loadmess 255"
				}

			}
, 			{
				"box" : 				{
					"id" : "obj-28",
					"maxclass" : "message",
					"numinlets" : 2,
					"numoutlets" : 1,
					"outlettype" : [ "" ],
					"patching_rect" : [ 1020.0, 866.0, 47.0, 23.0 ],
					"style" : "",
					"text" : "write"
				}

			}
, 			{
				"box" : 				{
					"bgcolor" : [ 0.67414, 0.668934, 0.657625, 1.0 ],
					"bgoncolor" : [ 0.65098, 0.666667, 0.662745, 1.0 ],
					"id" : "obj-14",
					"maxclass" : "textbutton",
					"numinlets" : 1,
					"numoutlets" : 3,
					"outlettype" : [ "", "", "int" ],
					"parameter_enable" : 0,
					"patching_rect" : [ 1020.0, 808.0, 100.0, 20.0 ],
					"presentation" : 1,
					"presentation_rect" : [ 390.0, 481.0, 100.0, 20.0 ],
					"style" : "",
					"text" : "Save presets",
					"textcolor" : [ 0.65098, 0.666667, 0.662745, 1.0 ]
				}

			}
, 			{
				"box" : 				{
					"bgcolor" : [ 0.67414, 0.668934, 0.657625, 1.0 ],
					"bgoncolor" : [ 0.65098, 0.666667, 0.662745, 1.0 ],
					"id" : "obj-13",
					"maxclass" : "textbutton",
					"numinlets" : 1,
					"numoutlets" : 3,
					"outlettype" : [ "", "", "int" ],
					"parameter_enable" : 0,
					"patching_rect" : [ 1133.0, 808.0, 100.0, 20.0 ],
					"presentation" : 1,
					"presentation_rect" : [ 501.0, 481.0, 100.0, 20.0 ],
					"style" : "",
					"text" : "Load presets",
					"textcolor" : [ 0.65098, 0.666667, 0.662745, 1.0 ]
				}

			}
, 			{
				"box" : 				{
					"fontsize" : 15.216469,
					"id" : "obj-11",
					"linecount" : 2,
					"maxclass" : "comment",
					"numinlets" : 1,
					"numoutlets" : 0,
					"patching_rect" : [ 135.0, 29.762299, 189.0, 45.0 ],
					"presentation" : 1,
					"presentation_rect" : [ 133.0, 29.762299, 294.0, 26.0 ],
					"style" : "",
					"text" : "Media Lab light grid controller"
				}

			}
, 			{
				"box" : 				{
					"bgcolor" : [ 0.67414, 0.668934, 0.657625, 1.0 ],
					"id" : "obj-55",
					"maxclass" : "textbutton",
					"numinlets" : 1,
					"numoutlets" : 3,
					"outlettype" : [ "", "", "int" ],
					"parameter_enable" : 0,
					"patching_rect" : [ 1199.0, 715.5, 100.0, 20.0 ],
					"presentation" : 1,
					"presentation_rect" : [ 386.5, 629.0, 100.0, 20.0 ],
					"style" : "",
					"text" : "Stop ramp"
				}

			}
, 			{
				"box" : 				{
					"id" : "obj-51",
					"maxclass" : "newobj",
					"numinlets" : 2,
					"numoutlets" : 1,
					"outlettype" : [ "int" ],
					"patching_rect" : [ 1638.0, 491.0, 29.5, 23.0 ],
					"style" : "",
					"text" : "i"
				}

			}
, 			{
				"box" : 				{
					"id" : "obj-46",
					"maxclass" : "newobj",
					"numinlets" : 1,
					"numoutlets" : 1,
					"outlettype" : [ "int" ],
					"patching_rect" : [ 1615.0, 438.5, 32.0, 23.0 ],
					"style" : "",
					"text" : "t 0"
				}

			}
, 			{
				"box" : 				{
					"id" : "obj-45",
					"maxclass" : "newobj",
					"numinlets" : 2,
					"numoutlets" : 2,
					"outlettype" : [ "int", "int" ],
					"patching_rect" : [ 1561.0, 491.0, 61.0, 23.0 ],
					"style" : "",
					"text" : "maximum"
				}

			}
, 			{
				"box" : 				{
					"fontsize" : 10.0,
					"id" : "obj-44",
					"maxclass" : "comment",
					"numinlets" : 1,
					"numoutlets" : 0,
					"patching_rect" : [ 177.0, 103.0, 182.0, 19.0 ],
					"presentation" : 1,
					"presentation_rect" : [ 658.0, 412.0, 71.0, 19.0 ],
					"style" : "",
					"text" : "saturation",
					"textcolor" : [ 0.784314, 0.145098, 0.023529, 1.0 ]
				}

			}
, 			{
				"box" : 				{
					"id" : "obj-43",
					"linecount" : 6,
					"maxclass" : "comment",
					"numinlets" : 1,
					"numoutlets" : 0,
					"patching_rect" : [ 1577.75, 684.0, 150.0, 96.0 ],
					"presentation" : 1,
					"presentation_linecount" : 4,
					"presentation_rect" : [ 386.5, 520.0, 184.0, 66.0 ],
					"style" : "",
					"text" : "Smoothly fade between presets. Click the line to add breakpoints, shift-click to delete."
				}

			}
, 			{
				"box" : 				{
					"id" : "obj-42",
					"linecount" : 2,
					"maxclass" : "comment",
					"numinlets" : 1,
					"numoutlets" : 0,
					"patching_rect" : [ 1656.0, 390.0, 150.0, 36.0 ],
					"presentation" : 1,
					"presentation_linecount" : 2,
					"presentation_rect" : [ 386.5, 410.0, 150.0, 36.0 ],
					"style" : "",
					"text" : "Shift-click to store presets."
				}

			}
, 			{
				"box" : 				{
					"bgcolor" : [ 0.67414, 0.668934, 0.657625, 1.0 ],
					"id" : "obj-37",
					"maxclass" : "textbutton",
					"numinlets" : 1,
					"numoutlets" : 3,
					"outlettype" : [ "", "", "int" ],
					"parameter_enable" : 0,
					"patching_rect" : [ 1632.0, 299.0, 110.0, 24.0 ],
					"presentation" : 1,
					"presentation_rect" : [ 386.5, 452.0, 119.0, 22.0 ],
					"style" : "",
					"text" : "Erase presets"
				}

			}
, 			{
				"box" : 				{
					"fontsize" : 15.216469,
					"id" : "obj-36",
					"maxclass" : "comment",
					"numinlets" : 1,
					"numoutlets" : 0,
					"patching_rect" : [ 1630.0, 166.5, 189.0, 26.0 ],
					"presentation" : 1,
					"presentation_rect" : [ 787.0, 418.762299, 74.0, 26.0 ],
					"style" : "",
					"text" : "Set all"
				}

			}
, 			{
				"box" : 				{
					"id" : "obj-32",
					"maxclass" : "newobj",
					"numinlets" : 2,
					"numoutlets" : 1,
					"outlettype" : [ "" ],
					"patching_rect" : [ 1561.0, 543.0, 90.0, 23.0 ],
					"style" : "",
					"text" : "pak 4 30000"
				}

			}
, 			{
				"box" : 				{
					"id" : "obj-31",
					"maxclass" : "newobj",
					"numinlets" : 2,
					"numoutlets" : 1,
					"outlettype" : [ "float" ],
					"patching_rect" : [ 1328.666626, 538.0, 61.0, 23.0 ],
					"style" : "",
					"text" : "* 1000."
				}

			}
, 			{
				"box" : 				{
					"id" : "obj-26",
					"maxclass" : "newobj",
					"numinlets" : 1,
					"numoutlets" : 1,
					"outlettype" : [ "" ],
					"patching_rect" : [ 1240.0, 455.0, 90.0, 23.0 ],
					"style" : "",
					"text" : "loadmess 30"
				}

			}
, 			{
				"box" : 				{
					"id" : "obj-21",
					"maxclass" : "comment",
					"numinlets" : 1,
					"numoutlets" : 0,
					"patching_rect" : [ 1175.5, 500.0, 147.0, 21.0 ],
					"presentation" : 1,
					"presentation_rect" : [ 127.833374, 629.0, 147.0, 21.0 ],
					"style" : "",
					"text" : "ramp time (seconds)"
				}

			}
, 			{
				"box" : 				{
					"format" : 6,
					"id" : "obj-19",
					"maxclass" : "flonum",
					"numinlets" : 1,
					"numoutlets" : 2,
					"outlettype" : [ "", "bang" ],
					"parameter_enable" : 0,
					"patching_rect" : [ 1328.666626, 500.0, 50.0, 23.0 ],
					"presentation" : 1,
					"presentation_rect" : [ 281.0, 629.0, 71.0, 23.0 ],
					"style" : ""
				}

			}
, 			{
				"box" : 				{
					"id" : "obj-10",
					"maxclass" : "message",
					"numinlets" : 2,
					"numoutlets" : 1,
					"outlettype" : [ "" ],
					"patching_rect" : [ 1328.666626, 579.0, 75.0, 23.0 ],
					"style" : "",
					"text" : "domain $1"
				}

			}
, 			{
				"box" : 				{
					"id" : "obj-39",
					"maxclass" : "newobj",
					"numinlets" : 1,
					"numoutlets" : 2,
					"outlettype" : [ "int", "bang" ],
					"patching_rect" : [ 214.666626, 556.0, 47.0, 23.0 ],
					"style" : "",
					"text" : "t 1 b"
				}

			}
, 			{
				"box" : 				{
					"id" : "obj-25",
					"maxclass" : "newobj",
					"numinlets" : 2,
					"numoutlets" : 1,
					"outlettype" : [ "" ],
					"patching_rect" : [ 1423.0, 870.0, 90.0, 23.0 ],
					"style" : "",
					"text" : "speedlim 33"
				}

			}
, 			{
				"box" : 				{
					"format" : 6,
					"id" : "obj-22",
					"maxclass" : "flonum",
					"numinlets" : 1,
					"numoutlets" : 2,
					"outlettype" : [ "", "bang" ],
					"parameter_enable" : 0,
					"patching_rect" : [ 1360.0, 856.0, 50.0, 23.0 ],
					"style" : ""
				}

			}
, 			{
				"box" : 				{
					"bgcolor" : [ 0.67414, 0.668934, 0.657625, 1.0 ],
					"id" : "obj-17",
					"maxclass" : "textbutton",
					"numinlets" : 1,
					"numoutlets" : 3,
					"outlettype" : [ "", "", "int" ],
					"parameter_enable" : 0,
					"patching_rect" : [ 1163.0, 591.5, 100.0, 20.0 ],
					"presentation" : 1,
					"presentation_rect" : [ 386.5, 603.0, 100.0, 20.0 ],
					"style" : "",
					"text" : "Go"
				}

			}
, 			{
				"box" : 				{
					"id" : "obj-16",
					"maxclass" : "newobj",
					"numinlets" : 3,
					"numoutlets" : 2,
					"outlettype" : [ "", "" ],
					"patching_rect" : [ 1389.0, 786.0, 61.0, 23.0 ],
					"style" : "",
					"text" : "line 0."
				}

			}
, 			{
				"box" : 				{
					"id" : "obj-15",
					"maxclass" : "message",
					"numinlets" : 2,
					"numoutlets" : 1,
					"outlettype" : [ "" ],
					"patching_rect" : [ 1561.0, 591.5, 219.0, 23.0 ],
					"style" : "",
					"text" : "range 1 $1, clear, 0 1, $2 $1"
				}

			}
, 			{
				"box" : 				{
					"addpoints" : [ 0.0, 1.0, 0, 30000.0, 4.0, 0 ],
					"domain" : 30000.0,
					"id" : "obj-12",
					"maxclass" : "function",
					"numinlets" : 1,
					"numoutlets" : 4,
					"outlettype" : [ "float", "", "", "bang" ],
					"parameter_enable" : 0,
					"patching_rect" : [ 1328.666626, 643.0, 200.0, 100.0 ],
					"presentation" : 1,
					"presentation_rect" : [ 133.0, 520.0, 245.5, 103.0 ],
					"range" : [ 1.0, 4.0 ],
					"style" : ""
				}

			}
, 			{
				"box" : 				{
					"active1" : [ 0.960784, 0.827451, 0.156863, 1.0 ],
					"bubblesize" : 16,
					"id" : "obj-9",
					"maxclass" : "preset",
					"numinlets" : 1,
					"numoutlets" : 4,
					"outlettype" : [ "preset", "int", "preset", "int" ],
					"patching_rect" : [ 1334.5, 371.0, 245.5, 85.0 ],
					"pattrstorage" : "lights",
					"presentation" : 1,
					"presentation_rect" : [ 133.0, 411.0, 245.5, 85.0 ],
					"stored1" : [ 0.92549, 0.364706, 0.341176, 1.0 ],
					"style" : ""
				}

			}
, 			{
				"box" : 				{
					"id" : "obj-4",
					"maxclass" : "newobj",
					"numinlets" : 1,
					"numoutlets" : 0,
					"patching_rect" : [ 1533.0, 236.0, 47.0, 23.0 ],
					"style" : "",
					"text" : "s all"
				}

			}
, 			{
				"box" : 				{
					"id" : "obj-23",
					"maxclass" : "message",
					"numinlets" : 2,
					"numoutlets" : 1,
					"outlettype" : [ "" ],
					"patching_rect" : [ 1598.0, 196.5, 54.0, 23.0 ],
					"style" : "",
					"text" : "set $1"
				}

			}
, 			{
				"box" : 				{
					"id" : "obj-7",
					"maxclass" : "message",
					"numinlets" : 2,
					"numoutlets" : 1,
					"outlettype" : [ "" ],
					"patching_rect" : [ 1533.0, 117.5, 104.0, 23.0 ],
					"style" : "",
					"text" : "saturation $1"
				}

			}
, 			{
				"box" : 				{
					"id" : "obj-3",
					"maxclass" : "slider",
					"numinlets" : 1,
					"numoutlets" : 1,
					"outlettype" : [ "" ],
					"parameter_enable" : 0,
					"patching_rect" : [ 1533.0, 87.5, 79.0, 19.0 ],
					"presentation" : 1,
					"presentation_rect" : [ 648.0, 412.0, 124.0, 19.0 ],
					"size" : 255.0,
					"style" : "",
					"varname" : "#1-saturation"
				}

			}
, 			{
				"box" : 				{
					"compatibility" : 1,
					"id" : "obj-1",
					"maxclass" : "swatch",
					"numinlets" : 3,
					"numoutlets" : 2,
					"outlettype" : [ "", "float" ],
					"parameter_enable" : 0,
					"patching_rect" : [ 1533.0, 152.5, 84.0, 35.0 ],
					"presentation" : 1,
					"presentation_rect" : [ 648.0, 433.0, 124.0, 35.0 ],
					"saturation" : 254,
					"varname" : "#1-rgb"
				}

			}
, 			{
				"box" : 				{
					"bgcolor" : [ 0.67414, 0.668934, 0.657625, 1.0 ],
					"bgoncolor" : [ 0.65098, 0.666667, 0.662745, 1.0 ],
					"id" : "obj-99",
					"maxclass" : "textbutton",
					"numinlets" : 1,
					"numoutlets" : 3,
					"outlettype" : [ "", "", "int" ],
					"parameter_enable" : 0,
					"patching_rect" : [ 1340.0, 220.0, 100.0, 20.0 ],
					"presentation" : 1,
					"presentation_rect" : [ 787.0, 448.0, 100.0, 20.0 ],
					"style" : "",
					"text" : "Random",
					"textcolor" : [ 0.65098, 0.666667, 0.662745, 1.0 ]
				}

			}
, 			{
				"box" : 				{
					"id" : "obj-98",
					"maxclass" : "newobj",
					"numinlets" : 1,
					"numoutlets" : 0,
					"patching_rect" : [ 1340.0, 262.0, 47.0, 23.0 ],
					"style" : "",
					"text" : "s ran"
				}

			}
, 			{
				"box" : 				{
					"args" : [ 29 ],
					"bgmode" : 0,
					"border" : 0,
					"clickthrough" : 0,
					"enablehscroll" : 0,
					"enablevscroll" : 0,
					"id" : "obj-92",
					"lockeddragscroll" : 0,
					"maxclass" : "bpatcher",
					"name" : "mlab-lights-px.maxpat",
					"numinlets" : 0,
					"numoutlets" : 0,
					"offset" : [ 0.0, 0.0 ],
					"patching_rect" : [ 768.666504, 321.0, 127.0, 58.0 ],
					"presentation" : 1,
					"presentation_rect" : [ 768.666504, 321.0, 127.0, 58.0 ],
					"varname" : "mlab-lights-px[24]",
					"viewvisibility" : 1
				}

			}
, 			{
				"box" : 				{
					"args" : [ 28 ],
					"bgmode" : 0,
					"border" : 0,
					"clickthrough" : 0,
					"enablehscroll" : 0,
					"enablevscroll" : 0,
					"id" : "obj-93",
					"lockeddragscroll" : 0,
					"maxclass" : "bpatcher",
					"name" : "mlab-lights-px.maxpat",
					"numinlets" : 0,
					"numoutlets" : 0,
					"offset" : [ 0.0, 0.0 ],
					"patching_rect" : [ 639.666504, 321.0, 127.0, 58.0 ],
					"presentation" : 1,
					"presentation_rect" : [ 639.666504, 321.0, 127.0, 58.0 ],
					"varname" : "mlab-lights-px[25]",
					"viewvisibility" : 1
				}

			}
, 			{
				"box" : 				{
					"args" : [ 27 ],
					"bgmode" : 0,
					"border" : 0,
					"clickthrough" : 0,
					"enablehscroll" : 0,
					"enablevscroll" : 0,
					"id" : "obj-94",
					"lockeddragscroll" : 0,
					"maxclass" : "bpatcher",
					"name" : "mlab-lights-px.maxpat",
					"numinlets" : 0,
					"numoutlets" : 0,
					"offset" : [ 0.0, 0.0 ],
					"patching_rect" : [ 512.999878, 321.0, 127.0, 58.0 ],
					"presentation" : 1,
					"presentation_rect" : [ 512.999878, 321.0, 127.0, 58.0 ],
					"varname" : "mlab-lights-px[26]",
					"viewvisibility" : 1
				}

			}
, 			{
				"box" : 				{
					"args" : [ 26 ],
					"bgmode" : 0,
					"border" : 0,
					"clickthrough" : 0,
					"enablehscroll" : 0,
					"enablevscroll" : 0,
					"id" : "obj-95",
					"lockeddragscroll" : 0,
					"maxclass" : "bpatcher",
					"name" : "mlab-lights-px.maxpat",
					"numinlets" : 0,
					"numoutlets" : 0,
					"offset" : [ 0.0, 0.0 ],
					"patching_rect" : [ 386.333252, 321.0, 127.0, 58.0 ],
					"presentation" : 1,
					"presentation_rect" : [ 386.333252, 321.0, 127.0, 58.0 ],
					"varname" : "mlab-lights-px[27]",
					"viewvisibility" : 1
				}

			}
, 			{
				"box" : 				{
					"args" : [ 25 ],
					"bgmode" : 0,
					"border" : 0,
					"clickthrough" : 0,
					"enablehscroll" : 0,
					"enablevscroll" : 0,
					"id" : "obj-96",
					"lockeddragscroll" : 0,
					"maxclass" : "bpatcher",
					"name" : "mlab-lights-px.maxpat",
					"numinlets" : 0,
					"numoutlets" : 0,
					"offset" : [ 0.0, 0.0 ],
					"patching_rect" : [ 259.666626, 321.0, 127.0, 58.0 ],
					"presentation" : 1,
					"presentation_rect" : [ 259.666626, 321.0, 127.0, 58.0 ],
					"varname" : "mlab-lights-px[28]",
					"viewvisibility" : 1
				}

			}
, 			{
				"box" : 				{
					"args" : [ 24 ],
					"bgmode" : 0,
					"border" : 0,
					"clickthrough" : 0,
					"enablehscroll" : 0,
					"enablevscroll" : 0,
					"id" : "obj-97",
					"lockeddragscroll" : 0,
					"maxclass" : "bpatcher",
					"name" : "mlab-lights-px.maxpat",
					"numinlets" : 0,
					"numoutlets" : 0,
					"offset" : [ 0.0, 0.0 ],
					"patching_rect" : [ 133.0, 321.0, 127.0, 58.0 ],
					"presentation" : 1,
					"presentation_rect" : [ 133.0, 321.0, 127.0, 58.0 ],
					"varname" : "mlab-lights-px[29]",
					"viewvisibility" : 1
				}

			}
, 			{
				"box" : 				{
					"args" : [ 23 ],
					"bgmode" : 0,
					"border" : 0,
					"clickthrough" : 0,
					"enablehscroll" : 0,
					"enablevscroll" : 0,
					"id" : "obj-80",
					"lockeddragscroll" : 0,
					"maxclass" : "bpatcher",
					"name" : "mlab-lights-px.maxpat",
					"numinlets" : 0,
					"numoutlets" : 0,
					"offset" : [ 0.0, 0.0 ],
					"patching_rect" : [ 768.666504, 261.0, 127.0, 58.0 ],
					"presentation" : 1,
					"presentation_rect" : [ 768.666504, 261.0, 127.0, 58.0 ],
					"varname" : "mlab-lights-px[12]",
					"viewvisibility" : 1
				}

			}
, 			{
				"box" : 				{
					"args" : [ 22 ],
					"bgmode" : 0,
					"border" : 0,
					"clickthrough" : 0,
					"enablehscroll" : 0,
					"enablevscroll" : 0,
					"id" : "obj-81",
					"lockeddragscroll" : 0,
					"maxclass" : "bpatcher",
					"name" : "mlab-lights-px.maxpat",
					"numinlets" : 0,
					"numoutlets" : 0,
					"offset" : [ 0.0, 0.0 ],
					"patching_rect" : [ 639.666504, 261.0, 127.0, 58.0 ],
					"presentation" : 1,
					"presentation_rect" : [ 639.666504, 261.0, 127.0, 58.0 ],
					"varname" : "mlab-lights-px[13]",
					"viewvisibility" : 1
				}

			}
, 			{
				"box" : 				{
					"args" : [ 21 ],
					"bgmode" : 0,
					"border" : 0,
					"clickthrough" : 0,
					"enablehscroll" : 0,
					"enablevscroll" : 0,
					"id" : "obj-82",
					"lockeddragscroll" : 0,
					"maxclass" : "bpatcher",
					"name" : "mlab-lights-px.maxpat",
					"numinlets" : 0,
					"numoutlets" : 0,
					"offset" : [ 0.0, 0.0 ],
					"patching_rect" : [ 512.999878, 261.0, 127.0, 58.0 ],
					"presentation" : 1,
					"presentation_rect" : [ 512.999878, 261.0, 127.0, 58.0 ],
					"varname" : "mlab-lights-px[14]",
					"viewvisibility" : 1
				}

			}
, 			{
				"box" : 				{
					"args" : [ 20 ],
					"bgmode" : 0,
					"border" : 0,
					"clickthrough" : 0,
					"enablehscroll" : 0,
					"enablevscroll" : 0,
					"id" : "obj-83",
					"lockeddragscroll" : 0,
					"maxclass" : "bpatcher",
					"name" : "mlab-lights-px.maxpat",
					"numinlets" : 0,
					"numoutlets" : 0,
					"offset" : [ 0.0, 0.0 ],
					"patching_rect" : [ 386.333252, 261.0, 127.0, 58.0 ],
					"presentation" : 1,
					"presentation_rect" : [ 386.333252, 261.0, 127.0, 58.0 ],
					"varname" : "mlab-lights-px[15]",
					"viewvisibility" : 1
				}

			}
, 			{
				"box" : 				{
					"args" : [ 19 ],
					"bgmode" : 0,
					"border" : 0,
					"clickthrough" : 0,
					"enablehscroll" : 0,
					"enablevscroll" : 0,
					"id" : "obj-84",
					"lockeddragscroll" : 0,
					"maxclass" : "bpatcher",
					"name" : "mlab-lights-px.maxpat",
					"numinlets" : 0,
					"numoutlets" : 0,
					"offset" : [ 0.0, 0.0 ],
					"patching_rect" : [ 259.666626, 261.0, 127.0, 58.0 ],
					"presentation" : 1,
					"presentation_rect" : [ 259.666626, 261.0, 127.0, 58.0 ],
					"varname" : "mlab-lights-px[16]",
					"viewvisibility" : 1
				}

			}
, 			{
				"box" : 				{
					"args" : [ 18 ],
					"bgmode" : 0,
					"border" : 0,
					"clickthrough" : 0,
					"enablehscroll" : 0,
					"enablevscroll" : 0,
					"id" : "obj-85",
					"lockeddragscroll" : 0,
					"maxclass" : "bpatcher",
					"name" : "mlab-lights-px.maxpat",
					"numinlets" : 0,
					"numoutlets" : 0,
					"offset" : [ 0.0, 0.0 ],
					"patching_rect" : [ 133.0, 261.0, 127.0, 58.0 ],
					"presentation" : 1,
					"presentation_rect" : [ 133.0, 261.0, 127.0, 58.0 ],
					"varname" : "mlab-lights-px[17]",
					"viewvisibility" : 1
				}

			}
, 			{
				"box" : 				{
					"args" : [ 17 ],
					"bgmode" : 0,
					"border" : 0,
					"clickthrough" : 0,
					"enablehscroll" : 0,
					"enablevscroll" : 0,
					"id" : "obj-86",
					"lockeddragscroll" : 0,
					"maxclass" : "bpatcher",
					"name" : "mlab-lights-px.maxpat",
					"numinlets" : 0,
					"numoutlets" : 0,
					"offset" : [ 0.0, 0.0 ],
					"patching_rect" : [ 768.666504, 201.0, 127.0, 58.0 ],
					"presentation" : 1,
					"presentation_rect" : [ 768.666504, 201.0, 127.0, 58.0 ],
					"varname" : "mlab-lights-px[18]",
					"viewvisibility" : 1
				}

			}
, 			{
				"box" : 				{
					"args" : [ 16 ],
					"bgmode" : 0,
					"border" : 0,
					"clickthrough" : 0,
					"enablehscroll" : 0,
					"enablevscroll" : 0,
					"id" : "obj-87",
					"lockeddragscroll" : 0,
					"maxclass" : "bpatcher",
					"name" : "mlab-lights-px.maxpat",
					"numinlets" : 0,
					"numoutlets" : 0,
					"offset" : [ 0.0, 0.0 ],
					"patching_rect" : [ 639.666504, 201.0, 127.0, 58.0 ],
					"presentation" : 1,
					"presentation_rect" : [ 639.666504, 201.0, 127.0, 58.0 ],
					"varname" : "mlab-lights-px[19]",
					"viewvisibility" : 1
				}

			}
, 			{
				"box" : 				{
					"args" : [ 15 ],
					"bgmode" : 0,
					"border" : 0,
					"clickthrough" : 0,
					"enablehscroll" : 0,
					"enablevscroll" : 0,
					"id" : "obj-88",
					"lockeddragscroll" : 0,
					"maxclass" : "bpatcher",
					"name" : "mlab-lights-px.maxpat",
					"numinlets" : 0,
					"numoutlets" : 0,
					"offset" : [ 0.0, 0.0 ],
					"patching_rect" : [ 512.999878, 201.0, 127.0, 58.0 ],
					"presentation" : 1,
					"presentation_rect" : [ 512.999878, 201.0, 127.0, 58.0 ],
					"varname" : "mlab-lights-px[20]",
					"viewvisibility" : 1
				}

			}
, 			{
				"box" : 				{
					"args" : [ 14 ],
					"bgmode" : 0,
					"border" : 0,
					"clickthrough" : 0,
					"enablehscroll" : 0,
					"enablevscroll" : 0,
					"id" : "obj-89",
					"lockeddragscroll" : 0,
					"maxclass" : "bpatcher",
					"name" : "mlab-lights-px.maxpat",
					"numinlets" : 0,
					"numoutlets" : 0,
					"offset" : [ 0.0, 0.0 ],
					"patching_rect" : [ 386.333252, 201.0, 127.0, 58.0 ],
					"presentation" : 1,
					"presentation_rect" : [ 386.333252, 201.0, 127.0, 58.0 ],
					"varname" : "mlab-lights-px[21]",
					"viewvisibility" : 1
				}

			}
, 			{
				"box" : 				{
					"args" : [ 13 ],
					"bgmode" : 0,
					"border" : 0,
					"clickthrough" : 0,
					"enablehscroll" : 0,
					"enablevscroll" : 0,
					"id" : "obj-90",
					"lockeddragscroll" : 0,
					"maxclass" : "bpatcher",
					"name" : "mlab-lights-px.maxpat",
					"numinlets" : 0,
					"numoutlets" : 0,
					"offset" : [ 0.0, 0.0 ],
					"patching_rect" : [ 259.666626, 201.0, 127.0, 58.0 ],
					"presentation" : 1,
					"presentation_rect" : [ 259.666626, 201.0, 127.0, 58.0 ],
					"varname" : "mlab-lights-px[22]",
					"viewvisibility" : 1
				}

			}
, 			{
				"box" : 				{
					"args" : [ 12 ],
					"bgmode" : 0,
					"border" : 0,
					"clickthrough" : 0,
					"enablehscroll" : 0,
					"enablevscroll" : 0,
					"id" : "obj-91",
					"lockeddragscroll" : 0,
					"maxclass" : "bpatcher",
					"name" : "mlab-lights-px.maxpat",
					"numinlets" : 0,
					"numoutlets" : 0,
					"offset" : [ 0.0, 0.0 ],
					"patching_rect" : [ 133.0, 201.0, 127.0, 58.0 ],
					"presentation" : 1,
					"presentation_rect" : [ 133.0, 201.0, 127.0, 58.0 ],
					"varname" : "mlab-lights-px[23]",
					"viewvisibility" : 1
				}

			}
, 			{
				"box" : 				{
					"args" : [ 11 ],
					"bgmode" : 0,
					"border" : 0,
					"clickthrough" : 0,
					"enablehscroll" : 0,
					"enablevscroll" : 0,
					"id" : "obj-74",
					"lockeddragscroll" : 0,
					"maxclass" : "bpatcher",
					"name" : "mlab-lights-px.maxpat",
					"numinlets" : 0,
					"numoutlets" : 0,
					"offset" : [ 0.0, 0.0 ],
					"patching_rect" : [ 768.666504, 141.0, 127.0, 58.0 ],
					"presentation" : 1,
					"presentation_rect" : [ 768.666504, 141.0, 127.0, 58.0 ],
					"varname" : "mlab-lights-px[6]",
					"viewvisibility" : 1
				}

			}
, 			{
				"box" : 				{
					"args" : [ 10 ],
					"bgmode" : 0,
					"border" : 0,
					"clickthrough" : 0,
					"enablehscroll" : 0,
					"enablevscroll" : 0,
					"id" : "obj-75",
					"lockeddragscroll" : 0,
					"maxclass" : "bpatcher",
					"name" : "mlab-lights-px.maxpat",
					"numinlets" : 0,
					"numoutlets" : 0,
					"offset" : [ 0.0, 0.0 ],
					"patching_rect" : [ 639.666504, 141.0, 127.0, 58.0 ],
					"presentation" : 1,
					"presentation_rect" : [ 639.666504, 141.0, 127.0, 58.0 ],
					"varname" : "mlab-lights-px[7]",
					"viewvisibility" : 1
				}

			}
, 			{
				"box" : 				{
					"args" : [ 9 ],
					"bgmode" : 0,
					"border" : 0,
					"clickthrough" : 0,
					"enablehscroll" : 0,
					"enablevscroll" : 0,
					"id" : "obj-76",
					"lockeddragscroll" : 0,
					"maxclass" : "bpatcher",
					"name" : "mlab-lights-px.maxpat",
					"numinlets" : 0,
					"numoutlets" : 0,
					"offset" : [ 0.0, 0.0 ],
					"patching_rect" : [ 512.999878, 141.0, 127.0, 58.0 ],
					"presentation" : 1,
					"presentation_rect" : [ 512.999878, 141.0, 127.0, 58.0 ],
					"varname" : "mlab-lights-px[8]",
					"viewvisibility" : 1
				}

			}
, 			{
				"box" : 				{
					"args" : [ 8 ],
					"bgmode" : 0,
					"border" : 0,
					"clickthrough" : 0,
					"enablehscroll" : 0,
					"enablevscroll" : 0,
					"id" : "obj-77",
					"lockeddragscroll" : 0,
					"maxclass" : "bpatcher",
					"name" : "mlab-lights-px.maxpat",
					"numinlets" : 0,
					"numoutlets" : 0,
					"offset" : [ 0.0, 0.0 ],
					"patching_rect" : [ 386.333252, 141.0, 127.0, 58.0 ],
					"presentation" : 1,
					"presentation_rect" : [ 386.333252, 141.0, 127.0, 58.0 ],
					"varname" : "mlab-lights-px[9]",
					"viewvisibility" : 1
				}

			}
, 			{
				"box" : 				{
					"args" : [ 7 ],
					"bgmode" : 0,
					"border" : 0,
					"clickthrough" : 0,
					"enablehscroll" : 0,
					"enablevscroll" : 0,
					"id" : "obj-78",
					"lockeddragscroll" : 0,
					"maxclass" : "bpatcher",
					"name" : "mlab-lights-px.maxpat",
					"numinlets" : 0,
					"numoutlets" : 0,
					"offset" : [ 0.0, 0.0 ],
					"patching_rect" : [ 259.666626, 141.0, 127.0, 58.0 ],
					"presentation" : 1,
					"presentation_rect" : [ 259.666626, 141.0, 127.0, 58.0 ],
					"varname" : "mlab-lights-px[10]",
					"viewvisibility" : 1
				}

			}
, 			{
				"box" : 				{
					"args" : [ 6 ],
					"bgmode" : 0,
					"border" : 0,
					"clickthrough" : 0,
					"enablehscroll" : 0,
					"enablevscroll" : 0,
					"id" : "obj-79",
					"lockeddragscroll" : 0,
					"maxclass" : "bpatcher",
					"name" : "mlab-lights-px.maxpat",
					"numinlets" : 0,
					"numoutlets" : 0,
					"offset" : [ 0.0, 0.0 ],
					"patching_rect" : [ 133.0, 141.0, 127.0, 58.0 ],
					"presentation" : 1,
					"presentation_rect" : [ 133.0, 141.0, 127.0, 58.0 ],
					"varname" : "mlab-lights-px[11]",
					"viewvisibility" : 1
				}

			}
, 			{
				"box" : 				{
					"args" : [ 5 ],
					"bgmode" : 0,
					"border" : 0,
					"clickthrough" : 0,
					"enablehscroll" : 0,
					"enablevscroll" : 0,
					"id" : "obj-73",
					"lockeddragscroll" : 0,
					"maxclass" : "bpatcher",
					"name" : "mlab-lights-px.maxpat",
					"numinlets" : 0,
					"numoutlets" : 0,
					"offset" : [ 0.0, 0.0 ],
					"patching_rect" : [ 768.666504, 81.0, 127.0, 58.0 ],
					"presentation" : 1,
					"presentation_rect" : [ 768.666504, 81.0, 127.0, 58.0 ],
					"varname" : "mlab-lights-px[5]",
					"viewvisibility" : 1
				}

			}
, 			{
				"box" : 				{
					"args" : [ 4 ],
					"bgmode" : 0,
					"border" : 0,
					"clickthrough" : 0,
					"enablehscroll" : 0,
					"enablevscroll" : 0,
					"id" : "obj-72",
					"lockeddragscroll" : 0,
					"maxclass" : "bpatcher",
					"name" : "mlab-lights-px.maxpat",
					"numinlets" : 0,
					"numoutlets" : 0,
					"offset" : [ 0.0, 0.0 ],
					"patching_rect" : [ 639.666504, 81.0, 127.0, 58.0 ],
					"presentation" : 1,
					"presentation_rect" : [ 639.666504, 81.0, 127.0, 58.0 ],
					"varname" : "mlab-lights-px[4]",
					"viewvisibility" : 1
				}

			}
, 			{
				"box" : 				{
					"args" : [ 3 ],
					"bgmode" : 0,
					"border" : 0,
					"clickthrough" : 0,
					"enablehscroll" : 0,
					"enablevscroll" : 0,
					"id" : "obj-71",
					"lockeddragscroll" : 0,
					"maxclass" : "bpatcher",
					"name" : "mlab-lights-px.maxpat",
					"numinlets" : 0,
					"numoutlets" : 0,
					"offset" : [ 0.0, 0.0 ],
					"patching_rect" : [ 512.999878, 81.0, 127.0, 58.0 ],
					"presentation" : 1,
					"presentation_rect" : [ 512.999878, 81.0, 127.0, 58.0 ],
					"varname" : "mlab-lights-px[3]",
					"viewvisibility" : 1
				}

			}
, 			{
				"box" : 				{
					"args" : [ 2 ],
					"bgmode" : 0,
					"border" : 0,
					"clickthrough" : 0,
					"enablehscroll" : 0,
					"enablevscroll" : 0,
					"id" : "obj-70",
					"lockeddragscroll" : 0,
					"maxclass" : "bpatcher",
					"name" : "mlab-lights-px.maxpat",
					"numinlets" : 0,
					"numoutlets" : 0,
					"offset" : [ 0.0, 0.0 ],
					"patching_rect" : [ 386.333252, 81.0, 127.0, 58.0 ],
					"presentation" : 1,
					"presentation_rect" : [ 386.333252, 81.0, 127.0, 58.0 ],
					"varname" : "mlab-lights-px[2]",
					"viewvisibility" : 1
				}

			}
, 			{
				"box" : 				{
					"args" : [ 1 ],
					"bgmode" : 0,
					"border" : 0,
					"clickthrough" : 0,
					"enablehscroll" : 0,
					"enablevscroll" : 0,
					"id" : "obj-69",
					"lockeddragscroll" : 0,
					"maxclass" : "bpatcher",
					"name" : "mlab-lights-px.maxpat",
					"numinlets" : 0,
					"numoutlets" : 0,
					"offset" : [ 0.0, 0.0 ],
					"patching_rect" : [ 259.666626, 81.0, 127.0, 58.0 ],
					"presentation" : 1,
					"presentation_rect" : [ 259.666626, 81.0, 127.0, 58.0 ],
					"varname" : "mlab-lights-px[1]",
					"viewvisibility" : 1
				}

			}
, 			{
				"box" : 				{
					"id" : "obj-65",
					"maxclass" : "newobj",
					"numinlets" : 1,
					"numoutlets" : 2,
					"outlettype" : [ "jit_matrix", "" ],
					"patching_rect" : [ 140.666626, 438.0, 133.0, 23.0 ],
					"style" : "",
					"text" : "jit.matrix lights"
				}

			}
, 			{
				"box" : 				{
					"args" : [ 0 ],
					"bgmode" : 0,
					"border" : 0,
					"clickthrough" : 0,
					"enablehscroll" : 0,
					"enablevscroll" : 0,
					"id" : "obj-64",
					"lockeddragscroll" : 0,
					"maxclass" : "bpatcher",
					"name" : "mlab-lights-px.maxpat",
					"numinlets" : 0,
					"numoutlets" : 0,
					"offset" : [ 0.0, 0.0 ],
					"patching_rect" : [ 133.0, 81.0, 127.0, 58.0 ],
					"presentation" : 1,
					"presentation_rect" : [ 133.0, 81.0, 127.0, 58.0 ],
					"varname" : "mlab-lights-px",
					"viewvisibility" : 1
				}

			}
, 			{
				"box" : 				{
					"format" : 6,
					"id" : "obj-41",
					"maxclass" : "flonum",
					"minimum" : 1.0,
					"numinlets" : 1,
					"numoutlets" : 2,
					"outlettype" : [ "", "bang" ],
					"parameter_enable" : 0,
					"patching_rect" : [ 1536.333374, 873.666687, 50.0, 23.0 ],
					"style" : "wm20150520a"
				}

			}
, 			{
				"box" : 				{
					"autorestore" : "lights.json",
					"id" : "obj-5",
					"maxclass" : "newobj",
					"numinlets" : 1,
					"numoutlets" : 1,
					"outlettype" : [ "" ],
					"patching_rect" : [ 1423.0, 954.333313, 234.0, 23.0 ],
					"saved_object_attributes" : 					{
						"client_rect" : [ 1578, 846, 2493, 1464 ],
						"parameter_enable" : 0,
						"storage_rect" : [ 583, 69, 1034, 197 ]
					}
,
					"style" : "wm20150520a",
					"text" : "pattrstorage lights @savemode 2",
					"varname" : "lights"
				}

			}
, 			{
				"box" : 				{
					"id" : "obj-56",
					"maxclass" : "newobj",
					"numinlets" : 2,
					"numoutlets" : 2,
					"outlettype" : [ "bang", "" ],
					"patching_rect" : [ 214.666626, 526.0, 68.0, 23.0 ],
					"style" : "wm20150520a",
					"text" : "sel done"
				}

			}
, 			{
				"box" : 				{
					"id" : "obj-38",
					"maxclass" : "newobj",
					"numinlets" : 0,
					"numoutlets" : 1,
					"outlettype" : [ "" ],
					"patching_rect" : [ 140.666626, 403.0, 83.0, 23.0 ],
					"style" : "wm20150520a",
					"text" : "r lightsgo"
				}

			}
, 			{
				"box" : 				{
					"id" : "obj-2",
					"maxclass" : "newobj",
					"numinlets" : 2,
					"numoutlets" : 2,
					"outlettype" : [ "", "" ],
					"patching_rect" : [ 189.666626, 617.0, 68.0, 23.0 ],
					"style" : "wm20150520a",
					"text" : "zl group"
				}

			}
, 			{
				"box" : 				{
					"id" : "obj-18",
					"maxclass" : "newobj",
					"numinlets" : 1,
					"numoutlets" : 3,
					"outlettype" : [ "", "", "" ],
					"patching_rect" : [ 140.666626, 489.5, 94.0, 23.0 ],
					"style" : "wm20150520a",
					"text" : "jit.iter"
				}

			}
, 			{
				"box" : 				{
					"contdata" : 1,
					"id" : "obj-27",
					"maxclass" : "multislider",
					"numinlets" : 1,
					"numoutlets" : 2,
					"outlettype" : [ "", "" ],
					"parameter_enable" : 0,
					"patching_rect" : [ 189.666626, 674.666687, 724.666748, 133.0 ],
					"setminmax" : [ 0.0, 255.0 ],
					"settype" : 0,
					"size" : 120,
					"style" : "wm20150520a"
				}

			}
, 			{
				"box" : 				{
					"id" : "obj-24",
					"maxclass" : "newobj",
					"numinlets" : 1,
					"numoutlets" : 2,
					"outlettype" : [ "", "" ],
					"patching_rect" : [ 189.666626, 902.0, 478.0, 23.0 ],
					"style" : "wm20150520a",
					"text" : "imp.artnet.controller @auto 1 @unicast 1 @unicast_ip 10.7.158.185"
				}

			}
, 			{
				"box" : 				{
					"id" : "obj-29",
					"maxclass" : "message",
					"numinlets" : 2,
					"numoutlets" : 1,
					"outlettype" : [ "" ],
					"patching_rect" : [ 1334.5, 328.0, 66.0, 23.0 ],
					"style" : "",
					"text" : "clearall"
				}

			}
, 			{
				"box" : 				{
					"id" : "obj-54",
					"maxclass" : "message",
					"numinlets" : 2,
					"numoutlets" : 1,
					"outlettype" : [ "" ],
					"patching_rect" : [ 1268.0, 773.0, 50.0, 23.0 ],
					"style" : "",
					"text" : "stop"
				}

			}
, 			{
				"box" : 				{
					"angle" : 270.0,
					"grad1" : [ 1.0, 0.999974, 0.999991, 1.0 ],
					"grad2" : [ 1.0, 1.0, 1.0, 1.0 ],
					"id" : "obj-6",
					"maxclass" : "panel",
					"mode" : 1,
					"numinlets" : 1,
					"numoutlets" : 0,
					"patching_rect" : [ 915.0, 87.0, 128.0, 128.0 ],
					"presentation" : 1,
					"presentation_rect" : [ 121.0, 64.0, 789.0, 334.0 ],
					"proportion" : 0.39,
					"style" : ""
				}

			}
, 			{
				"box" : 				{
					"angle" : 270.0,
					"grad1" : [ 1.0, 0.999974, 0.999991, 1.0 ],
					"grad2" : [ 1.0, 1.0, 1.0, 1.0 ],
					"id" : "obj-8",
					"maxclass" : "panel",
					"mode" : 1,
					"numinlets" : 1,
					"numoutlets" : 0,
					"patching_rect" : [ 915.0, 80.0, 128.0, 128.0 ],
					"presentation" : 1,
					"presentation_rect" : [ 626.0, 395.5, 284.0, 88.0 ],
					"proportion" : 0.39,
					"style" : ""
				}

			}
, 			{
				"box" : 				{
					"id" : "obj-34",
					"maxclass" : "message",
					"numinlets" : 2,
					"numoutlets" : 1,
					"outlettype" : [ "" ],
					"patching_rect" : [ 1133.0, 866.0, 39.0, 23.0 ],
					"style" : "",
					"text" : "read"
				}

			}
 ],
		"lines" : [ 			{
				"patchline" : 				{
					"destination" : [ "obj-23", 0 ],
					"disabled" : 0,
					"hidden" : 0,
					"source" : [ "obj-1", 1 ]
				}

			}
, 			{
				"patchline" : 				{
					"destination" : [ "obj-4", 0 ],
					"disabled" : 0,
					"hidden" : 0,
					"source" : [ "obj-1", 0 ]
				}

			}
, 			{
				"patchline" : 				{
					"destination" : [ "obj-12", 0 ],
					"disabled" : 0,
					"hidden" : 0,
					"source" : [ "obj-10", 0 ]
				}

			}
, 			{
				"patchline" : 				{
					"destination" : [ "obj-16", 0 ],
					"disabled" : 0,
					"hidden" : 0,
					"source" : [ "obj-12", 1 ]
				}

			}
, 			{
				"patchline" : 				{
					"destination" : [ "obj-34", 0 ],
					"disabled" : 0,
					"hidden" : 0,
					"source" : [ "obj-13", 0 ]
				}

			}
, 			{
				"patchline" : 				{
					"destination" : [ "obj-28", 0 ],
					"disabled" : 0,
					"hidden" : 0,
					"source" : [ "obj-14", 0 ]
				}

			}
, 			{
				"patchline" : 				{
					"destination" : [ "obj-12", 0 ],
					"disabled" : 0,
					"hidden" : 0,
					"source" : [ "obj-15", 0 ]
				}

			}
, 			{
				"patchline" : 				{
					"destination" : [ "obj-22", 0 ],
					"disabled" : 0,
					"hidden" : 0,
					"source" : [ "obj-16", 0 ]
				}

			}
, 			{
				"patchline" : 				{
					"destination" : [ "obj-25", 0 ],
					"disabled" : 0,
					"hidden" : 0,
					"source" : [ "obj-16", 0 ]
				}

			}
, 			{
				"patchline" : 				{
					"destination" : [ "obj-12", 0 ],
					"disabled" : 0,
					"hidden" : 0,
					"source" : [ "obj-17", 0 ]
				}

			}
, 			{
				"patchline" : 				{
					"destination" : [ "obj-2", 0 ],
					"disabled" : 0,
					"hidden" : 0,
					"midpoints" : [ 150.166626, 564.25, 199.166626, 564.25 ],
					"source" : [ "obj-18", 0 ]
				}

			}
, 			{
				"patchline" : 				{
					"destination" : [ "obj-56", 0 ],
					"disabled" : 0,
					"hidden" : 0,
					"source" : [ "obj-18", 2 ]
				}

			}
, 			{
				"patchline" : 				{
					"destination" : [ "obj-31", 0 ],
					"disabled" : 0,
					"hidden" : 0,
					"source" : [ "obj-19", 0 ]
				}

			}
, 			{
				"patchline" : 				{
					"destination" : [ "obj-27", 0 ],
					"disabled" : 0,
					"hidden" : 0,
					"midpoints" : [ 199.166626, 645.833374, 199.166626, 645.833374 ],
					"source" : [ "obj-2", 0 ]
				}

			}
, 			{
				"patchline" : 				{
					"destination" : [ "obj-3", 0 ],
					"disabled" : 0,
					"hidden" : 0,
					"source" : [ "obj-20", 0 ]
				}

			}
, 			{
				"patchline" : 				{
					"destination" : [ "obj-3", 0 ],
					"disabled" : 0,
					"hidden" : 0,
					"midpoints" : [ 1607.5, 228.5, 1671.0, 228.5, 1671.0, 75.5, 1542.5, 75.5 ],
					"source" : [ "obj-23", 0 ]
				}

			}
, 			{
				"patchline" : 				{
					"destination" : [ "obj-5", 0 ],
					"disabled" : 0,
					"hidden" : 0,
					"source" : [ "obj-25", 0 ]
				}

			}
, 			{
				"patchline" : 				{
					"destination" : [ "obj-19", 0 ],
					"disabled" : 0,
					"hidden" : 0,
					"source" : [ "obj-26", 0 ]
				}

			}
, 			{
				"patchline" : 				{
					"destination" : [ "obj-30", 0 ],
					"disabled" : 0,
					"hidden" : 0,
					"source" : [ "obj-27", 0 ]
				}

			}
, 			{
				"patchline" : 				{
					"destination" : [ "obj-5", 0 ],
					"disabled" : 0,
					"hidden" : 0,
					"source" : [ "obj-28", 0 ]
				}

			}
, 			{
				"patchline" : 				{
					"destination" : [ "obj-9", 0 ],
					"disabled" : 0,
					"hidden" : 0,
					"source" : [ "obj-29", 0 ]
				}

			}
, 			{
				"patchline" : 				{
					"destination" : [ "obj-7", 0 ],
					"disabled" : 0,
					"hidden" : 0,
					"source" : [ "obj-3", 0 ]
				}

			}
, 			{
				"patchline" : 				{
					"destination" : [ "obj-24", 0 ],
					"disabled" : 0,
					"hidden" : 0,
					"source" : [ "obj-30", 0 ]
				}

			}
, 			{
				"patchline" : 				{
					"destination" : [ "obj-10", 0 ],
					"disabled" : 0,
					"hidden" : 0,
					"source" : [ "obj-31", 0 ]
				}

			}
, 			{
				"patchline" : 				{
					"destination" : [ "obj-32", 1 ],
					"disabled" : 0,
					"hidden" : 0,
					"source" : [ "obj-31", 0 ]
				}

			}
, 			{
				"patchline" : 				{
					"destination" : [ "obj-15", 0 ],
					"disabled" : 0,
					"hidden" : 0,
					"source" : [ "obj-32", 0 ]
				}

			}
, 			{
				"patchline" : 				{
					"destination" : [ "obj-5", 0 ],
					"disabled" : 0,
					"hidden" : 0,
					"source" : [ "obj-34", 0 ]
				}

			}
, 			{
				"patchline" : 				{
					"destination" : [ "obj-29", 0 ],
					"disabled" : 0,
					"hidden" : 0,
					"source" : [ "obj-37", 0 ]
				}

			}
, 			{
				"patchline" : 				{
					"destination" : [ "obj-46", 0 ],
					"disabled" : 0,
					"hidden" : 0,
					"source" : [ "obj-37", 0 ]
				}

			}
, 			{
				"patchline" : 				{
					"destination" : [ "obj-65", 0 ],
					"disabled" : 0,
					"hidden" : 0,
					"source" : [ "obj-38", 0 ]
				}

			}
, 			{
				"patchline" : 				{
					"destination" : [ "obj-2", 0 ],
					"disabled" : 0,
					"hidden" : 0,
					"midpoints" : [ 252.166626, 597.5, 199.166626, 597.5 ],
					"source" : [ "obj-39", 1 ]
				}

			}
, 			{
				"patchline" : 				{
					"destination" : [ "obj-5", 0 ],
					"disabled" : 0,
					"hidden" : 0,
					"midpoints" : [ 1545.833374, 921.666626, 1432.5, 921.666626 ],
					"source" : [ "obj-41", 0 ]
				}

			}
, 			{
				"patchline" : 				{
					"destination" : [ "obj-32", 0 ],
					"disabled" : 0,
					"hidden" : 0,
					"source" : [ "obj-45", 0 ]
				}

			}
, 			{
				"patchline" : 				{
					"destination" : [ "obj-51", 0 ],
					"disabled" : 0,
					"hidden" : 0,
					"source" : [ "obj-45", 0 ]
				}

			}
, 			{
				"patchline" : 				{
					"destination" : [ "obj-45", 1 ],
					"disabled" : 0,
					"hidden" : 0,
					"source" : [ "obj-46", 0 ]
				}

			}
, 			{
				"patchline" : 				{
					"destination" : [ "obj-45", 1 ],
					"disabled" : 0,
					"hidden" : 0,
					"source" : [ "obj-51", 0 ]
				}

			}
, 			{
				"patchline" : 				{
					"destination" : [ "obj-16", 0 ],
					"disabled" : 0,
					"hidden" : 0,
					"source" : [ "obj-54", 0 ]
				}

			}
, 			{
				"patchline" : 				{
					"destination" : [ "obj-54", 0 ],
					"disabled" : 0,
					"hidden" : 0,
					"source" : [ "obj-55", 0 ]
				}

			}
, 			{
				"patchline" : 				{
					"destination" : [ "obj-39", 0 ],
					"disabled" : 0,
					"hidden" : 0,
					"source" : [ "obj-56", 0 ]
				}

			}
, 			{
				"patchline" : 				{
					"destination" : [ "obj-18", 0 ],
					"disabled" : 0,
					"hidden" : 0,
					"source" : [ "obj-65", 0 ]
				}

			}
, 			{
				"patchline" : 				{
					"destination" : [ "obj-1", 0 ],
					"disabled" : 0,
					"hidden" : 0,
					"source" : [ "obj-7", 0 ]
				}

			}
, 			{
				"patchline" : 				{
					"destination" : [ "obj-45", 0 ],
					"disabled" : 0,
					"hidden" : 0,
					"source" : [ "obj-9", 3 ]
				}

			}
, 			{
				"patchline" : 				{
					"destination" : [ "obj-98", 0 ],
					"disabled" : 0,
					"hidden" : 0,
					"source" : [ "obj-99", 0 ]
				}

			}
 ],
		"dependency_cache" : [ 			{
				"name" : "lights.json",
				"bootpath" : "~/Google Drive/patches/DigitalMediaInteractions/backups/DMI-F15 201501026a/misc/media-lab-lights/settings",
				"type" : "JSON",
				"implicit" : 1
			}
, 			{
				"name" : "mlab-lights-px.maxpat",
				"bootpath" : "~/Google Drive/patches/DigitalMediaInteractions/backups/DMI-F15 201501026a/misc/media-lab-lights/lib",
				"type" : "JSON",
				"implicit" : 1
			}
, 			{
				"name" : "imp.artnet.controller.mxo",
				"type" : "iLaX"
			}
 ],
		"autosave" : 0,
		"styles" : [ 			{
				"name" : "mystyle",
				"default" : 				{
					"fontname" : [ "Monaco" ],
					"bgcolor" : [ 1.0, 0.999974, 0.999991, 1.0 ],
					"textcolor_inverse" : [ 0.0, 0.0, 0.0, 1.0 ],
					"bgfillcolor" : 					{
						"type" : "gradient",
						"color" : [ 0.290196, 0.309804, 0.301961, 1.0 ],
						"color1" : [ 0.85109, 0.842249, 0.830042, 1.0 ],
						"color2" : [ 1.0, 1.0, 1.0, 1.0 ],
						"angle" : 270.0,
						"proportion" : 0.39,
						"autogradient" : 0
					}

				}
,
				"parentstyle" : "",
				"multi" : 0
			}
, 			{
				"name" : "newobjYellow-1",
				"default" : 				{
					"accentcolor" : [ 0.82517, 0.78181, 0.059545, 1.0 ],
					"fontsize" : [ 12.059008 ]
				}
,
				"parentstyle" : "",
				"multi" : 0
			}
, 			{
				"name" : "white monospace",
				"default" : 				{
					"fontname" : [ "Monaco" ],
					"color" : [ 0.18882, 0.288104, 0.351331, 1.0 ],
					"accentcolor" : [ 0.85109, 0.842249, 0.830042, 1.0 ],
					"elementcolor" : [ 0.780914, 0.800218, 0.843168, 1.0 ],
					"bgcolor" : [ 0.982943, 0.978557, 0.972212, 1.0 ],
					"textcolor_inverse" : [ 0.0, 0.0, 0.0, 1.0 ],
					"bgfillcolor" : 					{
						"type" : "gradient",
						"color" : [ 0.290196, 0.309804, 0.301961, 1.0 ],
						"color1" : [ 1.0, 0.999974, 0.999991, 1.0 ],
						"color2" : [ 0.813701, 0.827634, 0.818829, 1.0 ],
						"angle" : 270.0,
						"proportion" : 0.39,
						"autogradient" : 0
					}

				}
,
				"parentstyle" : "",
				"multi" : 0
			}
, 			{
				"name" : "wm20150520a",
				"default" : 				{
					"fontname" : [ "Monaco" ],
					"color" : [ 0.18882, 0.288104, 0.351331, 1.0 ],
					"accentcolor" : [ 0.85109, 0.842249, 0.830042, 1.0 ],
					"elementcolor" : [ 0.780914, 0.800218, 0.843168, 1.0 ],
					"bgcolor" : [ 0.982943, 0.978557, 0.972212, 1.0 ],
					"textcolor_inverse" : [ 0.0, 0.0, 0.0, 1.0 ],
					"bgfillcolor" : 					{
						"type" : "gradient",
						"color" : [ 0.290196, 0.309804, 0.301961, 1.0 ],
						"color1" : [ 1.0, 0.999974, 0.999991, 1.0 ],
						"color2" : [ 0.813701, 0.827634, 0.818829, 1.0 ],
						"angle" : 270.0,
						"proportion" : 0.39,
						"autogradient" : 0
					}

				}
,
				"parentstyle" : "",
				"multi" : 0
			}
 ]
	}

}
